<svg xmlns="http://www.w3.org/2000/svg" xmlns:xlink="http://www.w3.org/1999/xlink" width="512" zoomAndPan="magnify" viewBox="0 0 384 246.749995" height="329" preserveAspectRatio="xMidYMid meet" version="1.0"><defs><g/><clipPath id="5b805c76df"><path d="M 0.195312 0 L 383.804688 0 L 383.804688 246.5 L 0.195312 246.5 Z M 0.195312 0 " clip-rule="nonzero"/></clipPath><clipPath id="26c3398ad9"><path d="M 347.054688 107.28125 C 351.023438 105.78125 356.320312 106.488281 360.816406 104.988281 C 370.347656 101.722656 377.933594 96.519531 383.492188 90.605469 C 382.34375 84.519531 381.992188 81.167969 382.785156 76.050781 C 382.082031 75.695312 380.582031 76.667969 380.492188 75.253906 C 380.316406 71.199219 378.375 69.699219 376.523438 66.257812 C 362.316406 68.285156 336.46875 79.402344 321.117188 78.433594 C 330.558594 71.726562 337.351562 64.226562 337.527344 54.347656 C 336.734375 53.550781 332.234375 53.023438 331.175781 53.375 C 327.558594 52.671875 323.851562 49.40625 322.265625 47.375 C 320.765625 48.347656 320.5 47.289062 319.175781 47.996094 C 313.53125 43.671875 301.621094 50.199219 295.886719 46.140625 C 298.53125 39.171875 293.148438 37.582031 289.53125 34.230469 C 290.855469 28.761719 287.589844 25.851562 284.59375 20.734375 C 280.886719 22.496094 281.152344 19.761719 281.59375 17.996094 C 278.855469 18.792969 277.179688 17.734375 275.679688 16.320312 C 270.386719 18.351562 265.535156 18.4375 261.300781 18.878906 C 239.683594 21.175781 212.863281 26.996094 193.457031 27.96875 C 211.277344 20.378906 231.921875 15.527344 245.066406 9 C 245.507812 5.292969 245.421875 3.617188 245.15625 0.175781 C 230.953125 -1.058594 209.160156 5.734375 188.957031 12.085938 C 142.109375 26.820312 85.644531 43.582031 59.089844 69.699219 C 59.796875 73.578125 58.648438 78.609375 61.558594 81.960938 C 51.855469 87.253906 40.738281 92.019531 31.296875 97.488281 C 31.652344 102.074219 34.035156 106.839844 35.003906 107.632812 C 31.914062 109.3125 36.679688 108.074219 36.503906 109.839844 C 35.179688 110.457031 36.0625 111.957031 34.121094 112.398438 C 26.976562 111.25 19.035156 116.808594 11.710938 118.484375 C 11.449219 119.632812 14.09375 119.457031 12.417969 120.425781 C 7.566406 121.574219 7.035156 124.132812 2.183594 125.277344 C 2.007812 126.339844 1.832031 127.398438 2.097656 128.632812 C 2.800781 129.515625 7.035156 128.457031 5.890625 129.957031 C 3.332031 130.835938 0.332031 130.574219 0.417969 133.042969 C 1.832031 134.632812 4.742188 133.574219 5.535156 136.132812 C 4.917969 137.367188 2.976562 138.070312 3.507812 139.660156 C 7.652344 139.570312 11.359375 140.367188 15.683594 140.101562 C 14.359375 140.808594 16.742188 142.394531 20.269531 141.6875 C 20.09375 142.925781 17.007812 143.101562 17.269531 144.425781 C 22.386719 143.453125 23.800781 141.511719 28.5625 140.808594 C 25.386719 143.367188 21.328125 147.335938 17.359375 148.21875 C 16.210938 149.804688 16.652344 151.921875 16.035156 153.597656 C 14.976562 153.246094 15.066406 158.804688 17.800781 160.128906 C 21.242188 159.246094 29.003906 159.6875 34.035156 160.746094 C 33.679688 161.714844 32.535156 162.421875 33.152344 163.832031 C 34.828125 164.449219 38.886719 160.921875 40.5625 162.246094 C 43.03125 163.128906 38.621094 164.011719 39.855469 165.773438 C 56.265625 157.570312 69.410156 156.070312 86.085938 152.101562 C 67.46875 160.214844 42.328125 182.097656 41.886719 189.242188 C 44.179688 189.242188 46.121094 189.773438 48.238281 190.210938 C 47.53125 192.066406 46.472656 193.828125 46.296875 195.859375 C 47.445312 193.828125 51.5 192.859375 51.855469 196.566406 C 49.03125 196.828125 49.03125 197.710938 49.03125 199.828125 C 51.941406 200.183594 56.441406 197.625 57.855469 200.359375 C 56 201.503906 55.296875 200.445312 53.53125 201.417969 C 53.621094 203.183594 55.382812 201.859375 56 202.742188 C 50.882812 204.859375 51.148438 205.652344 49.472656 208.476562 C 48.0625 206.179688 44.355469 220.914062 47.355469 220.738281 C 44.886719 223.296875 49.648438 221.796875 50.796875 222.769531 C 49.738281 224.621094 52.121094 225.148438 52.382812 227.089844 C 53.707031 227.445312 56.265625 225.589844 56.179688 228.414062 C 53.621094 228.679688 54.414062 227.972656 52.648438 229.738281 C 52.03125 229.121094 50.707031 228.503906 49.382812 229.824219 C 50.355469 231.679688 50.003906 233.089844 49.824219 234.589844 C 54.5 233.796875 51.238281 235.382812 55.558594 235.738281 C 56.882812 237.324219 54.941406 237.765625 54.679688 238.824219 C 63.148438 239.089844 67.558594 242.617188 74.792969 244.292969 C 74.792969 245.882812 76.117188 245.265625 76.292969 246.5 C 90.054688 244.914062 99.144531 246.410156 115.023438 241.558594 C 113.082031 239.796875 107.613281 241.207031 106.554688 240.324219 C 117.316406 235.824219 130.464844 234.238281 143.34375 231.679688 C 155.695312 229.296875 167.871094 230.089844 180.046875 224.707031 C 182.957031 225.855469 185.25 223.648438 187.984375 222.855469 C 202.277344 218.53125 220.453125 215.09375 234.570312 213.945312 C 237.039062 213.769531 239.863281 212.355469 241.007812 211.5625 C 245.597656 212.269531 253.535156 209.269531 257.683594 208.121094 C 257.507812 207.328125 256.800781 206.445312 257.59375 206.003906 C 263.328125 204.683594 271.445312 203.269531 276.738281 200.09375 C 276.035156 199.742188 274.535156 200.710938 274.445312 199.300781 C 279.476562 198.066406 285.652344 197.535156 290.414062 195.59375 C 289.445312 195.417969 288.386719 195.417969 287.503906 194.976562 C 293.414062 190.476562 295.886719 188.273438 304 187.300781 C 303.382812 184.65625 305.238281 182.976562 309.382812 182.007812 C 310.53125 180.417969 307 181.039062 308.324219 179.097656 C 323.058594 177.15625 327.117188 163.921875 333.910156 156.511719 C 334.175781 156.246094 335.320312 155.539062 335.496094 155.363281 C 344.847656 149.71875 356.40625 148.921875 363.554688 141.160156 C 366.289062 135.25 373.523438 127.75 365.496094 122.898438 C 366.375 121.660156 365.933594 119.984375 365.054688 118.132812 C 361.4375 119.105469 344.761719 115.839844 341.054688 114.339844 C 341.851562 112.488281 340.171875 110.632812 340.613281 109.574219 C 344.054688 109.398438 345.027344 108.074219 347.054688 107.28125 Z M 347.054688 107.28125 " clip-rule="nonzero"/></clipPath></defs><g clip-path="url(#5b805c76df)"><g clip-path="url(#26c3398ad9)"><path fill="#38b000" d="M 0.507812 0 L 383.402344 0 L 383.402344 246.148438 L 0.507812 246.148438 Z M 0.507812 0 " fill-opacity="1" fill-rule="nonzero"/></g></g><g fill="#000000" fill-opacity="1"><g transform="translate(104.1748, 171.04939)"><g><path d="M 30.464844 0 L 30.464844 -37.472656 L 53.535156 -37.472656 C 71.378906 -37.472656 84.253906 -48.691406 84.253906 -67.9375 C 84.253906 -89.09375 71.378906 -97.253906 53.535156 -97.253906 L 7.648438 -97.253906 L 7.648438 0 Z M 30.464844 -76.859375 L 50.347656 -76.859375 C 57.738281 -76.859375 61.691406 -73.546875 61.691406 -67.171875 C 61.691406 -60.542969 57.738281 -57.230469 50.347656 -57.230469 L 30.464844 -57.230469 Z M 30.464844 -76.859375 "/></g></g></g><g fill="#000000" fill-opacity="1"><g transform="translate(191.229848, 171.04939)"><g><path d="M 30.464844 0 L 30.464844 -43.59375 L 60.925781 0 L 88.585938 0 L 52.386719 -50.09375 L 88.074219 -97.253906 L 60.671875 -97.253906 L 30.464844 -55.0625 L 30.464844 -97.253906 L 7.648438 -97.253906 L 7.648438 0 Z M 30.464844 0 "/></g></g></g></svg>